HIERARCHY
ROOT Hips
{
    OFFSET   0.000000   0.000000   0.000000
    CHANNELS 6 Xposition Yposition Zposition Zrotation Xrotation Yrotation
    JOINT Chest
    {
        OFFSET   0.000000   8.007230   0.000000
        CHANNELS 3 Zrotation Xrotation Yrotation
        JOINT Chest2
        {
            OFFSET   0.000000  22.077100   0.000000
            CHANNELS 3 Zrotation Xrotation Yrotation
            JOINT Neck
            {
                OFFSET   0.000000  23.254800  -0.000021
                CHANNELS 3 Zrotation Xrotation Yrotation
                JOINT Head
                {
                    OFFSET   0.000000  14.370000   1.956610
                    CHANNELS 3 Zrotation Xrotation Yrotation
                    End Site
                    {
                        OFFSET   0.000000  19.566000   0.000000
                    }
                }
            }
            JOINT LeftCollar
            {
                OFFSET   3.911900  19.017000  -0.467063
                CHANNELS 3 Zrotation Xrotation Yrotation
                JOINT LeftShoulder
                {
                    OFFSET  10.383700   0.000000   0.000000
                    CHANNELS 3 Zrotation Xrotation Yrotation
                    JOINT LeftElbow
                    {
                        OFFSET  26.662100   0.001529   0.000325
                        CHANNELS 3 Zrotation Xrotation Yrotation
                        JOINT LeftWrist
                        {
                            OFFSET  28.869000  -0.000011  -0.000096
                            CHANNELS 3 Zrotation Xrotation Yrotation
                            JOINT LeftFinger0
                            {
                                OFFSET   2.044650  -2.323460   3.252850
                                CHANNELS 3 Zrotation Xrotation Yrotation
                                JOINT LeftFinger01
                                {
                                    OFFSET   3.088130   0.000000   0.000000
                                    CHANNELS 3 Zrotation Xrotation Yrotation
                                    JOINT LeftFinger02
                                    {
                                        OFFSET   2.639460   0.000000   0.000000
                                        CHANNELS 3 Zrotation Xrotation Yrotation
                                        End Site
                                        {
                                            OFFSET   2.582190   0.000000   0.000000
                                        }
                                    }
                                }
                            }
                            JOINT LeftFinger1
                            {
                                OFFSET   8.364480   0.000000   3.252850
                                CHANNELS 3 Zrotation Xrotation Yrotation
                                JOINT LeftFinger11
                                {
                                    OFFSET   4.646930   0.000000   0.000000
                                    CHANNELS 3 Zrotation Xrotation Yrotation
                                    JOINT LeftFinger12
                                    {
                                        OFFSET   2.323460   0.000000   0.000000
                                        CHANNELS 3 Zrotation Xrotation Yrotation
                                        End Site
                                        {
                                            OFFSET   2.273050   0.000000   0.000000
                                        }
                                    }
                                }
                            }
                            JOINT LeftFinger2
                            {
                                OFFSET   8.364480   0.000016   1.078090
                                CHANNELS 3 Zrotation Xrotation Yrotation
                                JOINT LeftFinger21
                                {
                                    OFFSET   5.111620   0.000000   0.000000
                                    CHANNELS 3 Zrotation Xrotation Yrotation
                                    JOINT LeftFinger22
                                    {
                                        OFFSET   2.788160   0.000017   0.000000
                                        CHANNELS 3 Zrotation Xrotation Yrotation
                                        End Site
                                        {
                                            OFFSET   2.727660   0.000000   0.000000
                                        }
                                    }
                                }
                            }
                            JOINT LeftFinger3
                            {
                                OFFSET   7.899780   0.000015  -1.078090
                                CHANNELS 3 Zrotation Xrotation Yrotation
                                JOINT LeftFinger31
                                {
                                    OFFSET   4.646920   0.000000   0.000000
                                    CHANNELS 3 Zrotation Xrotation Yrotation
                                    JOINT LeftFinger32
                                    {
                                        OFFSET   2.323470   0.000000   0.000000
                                        CHANNELS 3 Zrotation Xrotation Yrotation
                                        End Site
                                        {
                                            OFFSET   2.273050   0.000000   0.000000
                                        }
                                    }
                                }
                            }
                            JOINT LeftFinger4
                            {
                                OFFSET   7.435090   0.000000  -3.252850
                                CHANNELS 3 Zrotation Xrotation Yrotation
                                JOINT LeftFinger41
                                {
                                    OFFSET   3.717550   0.000000   0.000000
                                    CHANNELS 3 Zrotation Xrotation Yrotation
                                    JOINT LeftFinger42
                                    {
                                        OFFSET   1.858760   0.000000   0.000000
                                        CHANNELS 3 Zrotation Xrotation Yrotation
                                        End Site
                                        {
                                            OFFSET   1.818440   0.000000   0.000000
                                        }
                                    }
                                }
                            }
                        }
                    }
                }
            }
            JOINT RightCollar
            {
                OFFSET  -3.911900  19.017000  -0.467062
                CHANNELS 3 Zrotation Xrotation Yrotation
                JOINT RightShoulder
                {
                    OFFSET -10.383700   0.000015   0.000000
                    CHANNELS 3 Zrotation Xrotation Yrotation
                    JOINT RightElbow
                    {
                        OFFSET -26.662100   0.001341   0.000385
                        CHANNELS 3 Zrotation Xrotation Yrotation
                        JOINT RightWrist
                        {
                            OFFSET -28.869000   0.000025  -0.000080
                            CHANNELS 3 Zrotation Xrotation Yrotation
                            JOINT RightFinger0
                            {
                                OFFSET  -2.044650  -2.323490   3.252850
                                CHANNELS 3 Zrotation Xrotation Yrotation
                                JOINT RightFinger01
                                {
                                    OFFSET  -3.088130   0.000000   0.000000
                                    CHANNELS 3 Zrotation Xrotation Yrotation
                                    JOINT RightFinger02
                                    {
                                        OFFSET  -2.639460   0.000000   0.000000
                                        CHANNELS 3 Zrotation Xrotation Yrotation
                                        End Site
                                        {
                                            OFFSET  -2.582190   0.000000   0.000000
                                        }
                                    }
                                }
                            }
                            JOINT RightFinger1
                            {
                                OFFSET  -8.364480   0.000000   3.252850
                                CHANNELS 3 Zrotation Xrotation Yrotation
                                JOINT RightFinger11
                                {
                                    OFFSET  -4.646930   0.000000   0.000000
                                    CHANNELS 3 Zrotation Xrotation Yrotation
                                    JOINT RightFinger12
                                    {
                                        OFFSET  -2.323470   0.000000   0.000000
                                        CHANNELS 3 Zrotation Xrotation Yrotation
                                        End Site
                                        {
                                            OFFSET  -2.273050   0.000000   0.000000
                                        }
                                    }
                                }
                            }
                            JOINT RightFinger2
                            {
                                OFFSET  -8.364480   0.000000   1.078090
                                CHANNELS 3 Zrotation Xrotation Yrotation
                                JOINT RightFinger21
                                {
                                    OFFSET  -5.111610   0.000000   0.000000
                                    CHANNELS 3 Zrotation Xrotation Yrotation
                                    JOINT RightFinger22
                                    {
                                        OFFSET  -2.788160   0.000000   0.000000
                                        CHANNELS 3 Zrotation Xrotation Yrotation
                                        End Site
                                        {
                                            OFFSET  -2.727660   0.000000   0.000000
                                        }
                                    }
                                }
                            }
                            JOINT RightFinger3
                            {
                                OFFSET  -7.899780   0.000000  -1.078090
                                CHANNELS 3 Zrotation Xrotation Yrotation
                                JOINT RightFinger31
                                {
                                    OFFSET  -4.646920   0.000000   0.000000
                                    CHANNELS 3 Zrotation Xrotation Yrotation
                                    JOINT RightFinger32
                                    {
                                        OFFSET  -2.323470   0.000000   0.000000
                                        CHANNELS 3 Zrotation Xrotation Yrotation
                                        End Site
                                        {
                                            OFFSET  -2.273050   0.000000   0.000000
                                        }
                                    }
                                }
                            }
                            JOINT RightFinger4
                            {
                                OFFSET  -7.435090   0.000000  -3.252850
                                CHANNELS 3 Zrotation Xrotation Yrotation
                                JOINT RightFinger41
                                {
                                    OFFSET  -3.717550   0.000000   0.000000
                                    CHANNELS 3 Zrotation Xrotation Yrotation
                                    JOINT RightFinger42
                                    {
                                        OFFSET  -1.858770   0.000000   0.000000
                                        CHANNELS 3 Zrotation Xrotation Yrotation
                                        End Site
                                        {
                                            OFFSET  -1.818440   0.000000   0.000000
                                        }
                                    }
                                }
                            }
                        }
                    }
                }
            }
        }
    }
    JOINT LeftHip
    {
        OFFSET   9.783010   0.000000   0.000000
        CHANNELS 3 Zrotation Xrotation Yrotation
        JOINT LeftKnee
        {
            OFFSET   0.000070 -41.789100   0.000028
            CHANNELS 3 Zrotation Xrotation Yrotation
            JOINT LeftAnkle
            {
                OFFSET   0.000087 -41.133200  -0.000100
                CHANNELS 3 Zrotation Xrotation Yrotation
                JOINT LeftToe
                {
                    OFFSET   0.000000  -6.358960  14.674500
                    CHANNELS 3 Zrotation Xrotation Yrotation
                    End Site
                    {
                        OFFSET   0.000000   0.000000   3.913200
                    }
                }
            }
        }
    }
    JOINT RightHip
    {
        OFFSET  -9.783020   0.000000   0.000000
        CHANNELS 3 Zrotation Xrotation Yrotation
        JOINT RightKnee
        {
            OFFSET   0.000044 -41.789100  -0.000870
            CHANNELS 3 Zrotation Xrotation Yrotation
            JOINT RightAnkle
            {
                OFFSET  -0.000090 -41.133200  -0.000245
                CHANNELS 3 Zrotation Xrotation Yrotation
                JOINT RightToe
                {
                    OFFSET   0.000000  -6.358960  14.674500
                    CHANNELS 3 Zrotation Xrotation Yrotation
                    End Site
                    {
                        OFFSET   0.000000   0.000000   3.913200
                    }
                }
            }
        }
    }
}
MOTION
Frames: 4
Frame Time:   0.016667
  2.678500  89.487800  -0.986855  -7.621350 -23.081100  -5.606000   0.736414  12.581400   2.978530   0.812926  25.183900   6.013360   1.196990  -0.486347   0.020038   1.967510  -0.984974   0.786512  -4.038160  -4.440550  -1.548520 -40.618800  13.823400 -78.812900  28.612200  10.903700 -40.887700  78.743600  29.467700 -36.265300  47.920800  36.307300 -74.980500  -2.610460  -0.004109   0.011027   3.694790  -0.009002   0.001865  13.733100  -0.019257  -0.076976  -0.000000  -0.001895  -0.003382  -0.000000  -0.000870  -0.002353   7.831290  -0.011191  -0.078542  -0.000318  -0.004028  -0.005789  -0.000000  -0.002152  -0.003796  12.995600  -0.018153  -0.077244  -0.000000  -0.005063  -0.005453  -0.000000  -0.002997  -0.003925  10.014700  -0.013863  -0.077895  -0.000001  -0.007444  -0.007325  -0.000000  -0.003972  -0.006605   7.960630  -4.416990  11.105100  33.808500   4.173740  60.263600 -33.496300   5.435600  39.323400 -78.258900  21.456800  34.201300 -50.911200  39.333100  79.312200   7.688960   0.000148  -0.002050  -1.155500  -0.004400  -0.001588  -4.665850   0.541614  -6.598140  -0.000000   0.000698   0.003279   0.000000  -0.002008   0.002374  -3.727520   0.472901  -7.215610  -0.000000   0.008118   0.001250  -0.000000   0.005281   0.000939 -12.799700   1.749530  -7.653990  -0.000000   0.009436   0.002356  -0.000000   0.006287   0.000984   3.940140  -0.542352  -7.831500   5.965890  -0.001292   0.000847   3.973290  -0.000461   0.000234   4.055210  25.886400   5.497150   0.974282   0.014570   7.629700  -0.162640  -3.832190   3.909520  -0.000000   0.000000  -0.000000   5.576700  22.275300  -6.459740  -2.900210   5.662890  -9.654100   3.040710  -4.439620   6.039300  -0.000000   0.000000   0.000000
  2.700650  89.494500  -0.990442  -7.647260 -23.071200  -5.667140   0.743722  12.568400   2.971780   0.830473  25.158400   5.997260   1.197710  -0.487211   0.019935   1.968800  -0.986845   0.820895  -4.056900  -4.447460  -1.492360 -40.700400  13.908000 -78.700300  28.642500  11.085900 -40.864200  78.670800  29.685700 -36.168900  47.870200  36.388500 -75.171100  -3.246000  -0.004154   0.011465   3.377010  -0.009224   0.001839  13.506000  -0.009052  -0.036436  -0.000000  -0.001858  -0.003463  -0.000000  -0.000890  -0.002409   7.612920  -0.005276  -0.037172  -0.000305  -0.004199  -0.005858  -0.000000  -0.002256  -0.003891  12.809000  -0.008616  -0.036587  -0.000001  -0.005217  -0.005509  -0.000000  -0.003087  -0.003993  10.030200  -0.006688  -0.036892  -0.000001  -0.007408  -0.007577  -0.000000  -0.003927  -0.006629   7.972210  -4.441950  11.126400  33.702300   4.266410  60.242300 -33.530900   5.474120  39.324000 -78.088700  21.481300  34.169700 -50.940500  39.389100  79.414700   7.852680   0.000285  -0.002017  -1.073640  -0.004460  -0.001466  -4.514680   0.518208  -6.537490  -0.000000   0.000617   0.003027   0.000000  -0.002082   0.002201  -3.622900   0.456440  -7.174400  -0.000000   0.007852   0.001479  -0.000000   0.005085   0.001089 -12.753000   1.732860  -7.611490  -0.000000   0.009726   0.002324  -0.000000   0.006376   0.001036   3.950550  -0.541226  -7.786450   5.981130  -0.001164   0.000747   3.983450  -0.000376   0.000202   4.036500  25.886800   5.502840   0.966008   0.019864   7.638610  -0.138516  -3.850600   3.956650   0.000000   0.000000   0.000000   5.567490  22.257300  -6.438460  -2.905080   5.673570  -9.643160   3.050380  -4.437430   6.066020  -0.000000   0.000000   0.000000
  2.720710  89.500700  -0.996322  -7.674720 -23.059800  -5.731560   0.750857  12.553500   2.963160   0.848209  25.129000   5.977300   1.198730  -0.481556   0.019845   1.970660  -0.975299   0.862245  -4.065830  -4.432310  -1.428510 -40.680800  14.021200 -78.614200  28.670400  11.153100 -40.763700  78.607700  29.864000 -36.020900  47.850000  36.434900 -75.272300  -3.592440  -0.004218   0.011864   3.203770  -0.009436   0.001817  13.453800   0.005729   0.024408  -0.000000  -0.001834  -0.003518  -0.000000  -0.000920  -0.002474   7.511650   0.003266   0.024912  -0.000297  -0.004352  -0.005920  -0.000000  -0.002352  -0.003998  12.751000   0.005398   0.024480  -0.000001  -0.005357  -0.005576  -0.000000  -0.003177  -0.004051  10.016000   0.004200   0.024642  -0.000001  -0.007351  -0.007802  -0.000000  -0.003867  -0.006656   7.987480  -4.465410  11.151500  33.578100   4.364790  60.237900 -33.526400   5.502620  39.298200 -77.924000  21.499100  34.084500 -50.942900  39.412200  79.460200   8.083820   0.000409  -0.001988  -0.958087  -0.004526  -0.001354  -4.420020   0.507737  -6.536440  -0.000000   0.000550   0.002800   0.000000  -0.002173   0.002023  -3.570020   0.449996  -7.179830  -0.000000   0.007571   0.001709  -0.000000   0.004876   0.001219 -12.749300   1.749040  -7.681720  -0.000000   0.010011   0.002286  -0.000000   0.006454   0.001103   3.972950  -0.548612  -7.858190   6.015770  -0.001041   0.000628   4.006510  -0.000301   0.000166   4.012200  25.889200   5.520110   0.963442   0.010859   7.650350  -0.113635  -3.864210   3.995290  -0.000000   0.000000  -0.000000   5.561760  22.237500  -6.413050  -2.912500   5.681710  -9.636380   3.055370  -4.430940   6.094100   0.000000   0.000000   0.000000
  2.737940  89.506300  -1.005330  -7.702690 -23.044600  -5.795250   0.758286  12.537800   2.954150   0.866695  25.097800   5.956420   1.199920  -0.475438   0.019756   1.972690  -0.962632   0.891024  -4.065690  -4.398450  -1.364780 -40.636700  14.131400 -78.539000  28.683200  11.183100 -40.624700  78.545200  30.016700 -35.851400  47.838400  36.475700 -75.355200  -3.796780  -0.004297   0.012223   3.101590  -0.009648   0.001794  13.394800   0.015513   0.064975  -0.000000  -0.001815  -0.003569  -0.000000  -0.000950  -0.002535   7.440700   0.008917   0.066306  -0.000289  -0.004492  -0.005978  -0.000000  -0.002439  -0.004102  12.642400   0.014703   0.065201  -0.000001  -0.005481  -0.005642  -0.000000  -0.003262  -0.004103   9.916520   0.011476   0.065670  -0.000001  -0.007281  -0.008010  -0.000000  -0.003801  -0.006679   8.011980  -4.496070  11.176800  33.440800   4.462080  60.224600 -33.496200   5.548790  39.277500 -77.746100  21.518200  33.946200 -50.928000  39.418800  79.481100   8.322520   0.000520  -0.001966  -0.838758  -0.004595  -0.001254  -4.351110   0.499400  -6.535400  -0.000000   0.000479   0.002583   0.000000  -0.002267   0.001847  -3.552330   0.448756  -7.185270  -0.000000   0.007283   0.001930  -0.000000   0.004657   0.001340 -12.749100   1.765210  -7.751960  -0.000000   0.010297   0.002252  -0.000000   0.006526   0.001174   3.985800  -0.555995  -7.929940   6.036340  -0.000929   0.000493   4.020200  -0.000236   0.000122   3.994220  25.890600   5.538880   0.959589   0.001854   7.657390  -0.089623  -3.875600   4.037260   0.000000   0.000000  -0.000000   5.561100  22.212200  -6.386750  -2.920160   5.688650  -9.631520   3.057230  -4.422080   6.121860  -0.000000   0.000000  -0.000000
